<svg version="1.1" id="Layer_1" xmlns="http://www.w3.org/2000/svg" xmlns:xlink="http://www.w3.org/1999/xlink" x="0px" y="0px"
	 width="100%" viewBox="0 0 512 512" enable-background="new 0 0 512 512" xml:space="preserve">
<path fill="#ff000000" opacity="1.000000" stroke="none" 
	d="
M276.000000,513.000000 
	C184.022324,513.000000 92.544647,513.000000 1.033484,513.000000 
	C1.033484,342.397308 1.033484,171.794586 1.033484,1.095938 
	C171.561035,1.095938 342.122131,1.095938 512.841614,1.095938 
	C512.841614,171.666550 512.841614,342.333252 512.841614,513.000000 
	C434.127899,513.000000 355.313934,513.000000 276.000000,513.000000 
M158.808197,469.990204 
	C168.348755,471.547668 177.781113,471.090179 186.969727,468.037872 
	C193.696686,465.803314 200.312485,463.234100 207.201294,460.732849 
	C219.823471,481.008026 237.137955,495.877441 262.285797,495.632385 
	C287.221680,495.389404 305.026764,481.285156 317.126495,460.098694 
	C338.450104,471.278595 359.998932,476.048279 381.732056,463.888489 
	C403.880280,451.496460 409.676727,429.766449 411.325012,406.200500 
	C435.222321,404.255798 456.461426,397.115967 468.513672,374.715485 
	C480.269592,352.865784 476.247772,331.117645 465.472229,310.053223 
	C510.898773,283.662231 513.483398,230.027191 465.354034,201.797195 
	C476.277985,180.960114 480.326477,159.398651 468.198700,137.844666 
	C455.873566,115.939926 434.653503,109.178993 411.222900,107.677155 
	C409.693451,57.170967 368.021942,26.713310 317.232239,53.530441 
	C292.560242,10.268607 237.225723,3.625178 206.926224,53.084042 
	C203.506760,51.702438 200.019394,50.374912 196.597275,48.896347 
	C183.123550,43.074886 168.910629,41.666721 155.101624,45.672104 
	C134.173462,51.742443 121.381317,66.604568 116.042496,87.646812 
	C114.369499,94.240715 113.580803,101.058983 112.393173,107.741699 
	C88.958466,109.348663 67.492111,115.295799 55.111149,137.216675 
	C42.772629,159.062439 47.747501,180.731689 58.888485,201.852188 
	C37.996346,214.125595 23.367039,231.172806 23.347509,256.004761 
	C23.327858,280.990723 38.240196,298.006256 58.915676,310.189026 
	C57.561802,312.859589 56.364437,315.014282 55.351925,317.252563 
	C49.205582,330.839905 46.073635,345.061310 49.160069,359.804504 
	C53.422089,380.163208 66.121681,393.895508 85.503395,400.803284 
	C94.160027,403.888580 103.522484,404.993500 111.764046,406.819794 
	C114.183243,416.759003 115.606598,427.086334 119.336685,436.499634 
	C122.265312,443.890320 127.232605,450.928375 132.767136,456.714142 
	C139.430374,463.679840 148.376068,467.745209 158.808197,469.990204 
z"/>
<path fill="#ED0000" opacity="1.000000" stroke="none" 
	d="
M158.371750,469.968933 
	C148.376068,467.745209 139.430374,463.679840 132.767136,456.714142 
	C127.232605,450.928375 122.265312,443.890320 119.336685,436.499634 
	C115.606598,427.086334 114.183243,416.759003 111.764046,406.819794 
	C103.522484,404.993500 94.160027,403.888580 85.503395,400.803284 
	C66.121681,393.895508 53.422089,380.163208 49.160069,359.804504 
	C46.073635,345.061310 49.205582,330.839905 55.351925,317.252563 
	C56.364437,315.014282 57.561802,312.859589 58.915676,310.189026 
	C38.240196,298.006256 23.327858,280.990723 23.347509,256.004761 
	C23.367039,231.172806 37.996346,214.125595 58.888485,201.852188 
	C47.747501,180.731689 42.772629,159.062439 55.111149,137.216675 
	C67.492111,115.295799 88.958466,109.348663 112.393173,107.741699 
	C113.580803,101.058983 114.369499,94.240715 116.042496,87.646812 
	C121.381317,66.604568 134.173462,51.742443 155.101624,45.672104 
	C168.910629,41.666721 183.123550,43.074886 196.597275,48.896347 
	C200.019394,50.374912 203.506760,51.702438 206.926224,53.084042 
	C237.225723,3.625178 292.560242,10.268607 317.232239,53.530441 
	C368.021942,26.713310 409.693451,57.170967 411.222900,107.677155 
	C434.653503,109.178993 455.873566,115.939926 468.198700,137.844666 
	C480.326477,159.398651 476.277985,180.960114 465.354034,201.797195 
	C513.483398,230.027191 510.898773,283.662231 465.472229,310.053223 
	C476.247772,331.117645 480.269592,352.865784 468.513672,374.715485 
	C456.461426,397.115967 435.222321,404.255798 411.325012,406.200500 
	C409.676727,429.766449 403.880280,451.496460 381.732056,463.888489 
	C359.998932,476.048279 338.450104,471.278595 317.126495,460.098694 
	C305.026764,481.285156 287.221680,495.389404 262.285797,495.632385 
	C237.137955,495.877441 219.823471,481.008026 207.201294,460.732849 
	C200.312485,463.234100 193.696686,465.803314 186.969727,468.037872 
	C177.781113,471.090179 168.348755,471.547668 158.371750,469.968933 
M237.636169,272.999908 
	C234.891373,272.574219 232.068466,272.425140 229.415054,271.675873 
	C216.542908,268.040894 206.646713,255.288971 207.119583,242.005188 
	C207.558701,229.669373 216.641006,220.355972 228.535553,219.997559 
	C234.799164,219.808807 240.108444,216.203430 241.950439,210.910355 
	C243.977097,205.086655 242.563568,200.178391 237.514893,196.076202 
	C232.519318,192.017120 226.985519,192.894485 221.124969,193.894501 
	C201.229218,197.289398 186.422348,211.745438 182.163727,230.240005 
	C177.560822,250.229721 183.078110,268.310455 197.487747,282.706879 
	C211.047546,296.254242 227.681992,301.946411 247.303436,299.199005 
	C266.762573,296.474335 282.476105,287.431763 294.528351,272.600952 
	C307.877014,256.174835 311.918518,236.781326 307.907776,216.064194 
	C304.123993,196.519241 294.281006,179.991943 278.852356,167.654007 
	C257.397095,150.496704 232.862701,144.038818 205.497330,149.949203 
	C168.546265,157.929962 143.527084,179.885513 130.098099,214.846024 
	C123.575729,231.826111 122.754219,249.494766 125.823242,267.635895 
	C130.225662,293.658752 141.399643,316.180878 159.681961,334.765228 
	C167.956940,343.176849 178.193954,349.826172 188.113800,356.411957 
	C202.561813,366.003998 219.093445,370.393311 236.137421,371.804321 
	C249.270767,372.891602 262.434479,371.825958 275.539856,369.164917 
	C301.530701,363.887512 324.336700,352.310425 344.139404,335.107788 
	C356.949829,323.979340 367.963501,311.125610 376.531586,296.157745 
	C390.113983,272.430206 397.768250,247.314255 396.975281,219.849075 
	C396.800201,213.784424 391.240173,208.397644 385.201202,207.988281 
	C376.540680,207.401215 370.070618,213.060898 370.050171,224.978836 
	C370.028259,237.753723 367.524017,249.926987 363.141785,261.918243 
	C351.836761,292.852966 331.107361,315.373566 302.125244,330.283081 
	C289.622009,336.715240 276.207703,340.758453 261.990631,342.210876 
	C248.563446,343.582550 235.118988,344.141296 222.181976,340.489288 
	C191.641113,331.867798 169.679428,312.921387 157.758530,283.241211 
	C151.021286,266.467072 148.645325,249.002457 153.055679,231.187912 
	C156.929047,215.542389 164.716309,202.283859 177.446548,191.890244 
	C188.925552,182.518188 201.756866,176.396759 216.382980,175.141052 
	C237.896790,173.293991 256.457031,179.634949 270.537354,196.965881 
	C280.628845,209.387131 284.642090,223.917572 281.581787,238.994553 
	C277.510864,259.050598 260.457520,272.530121 237.636169,272.999908 
z"/>
<path fill="#000000" opacity="1.000000" stroke="none" 
	d="
M238.094818,272.999939 
	C260.457520,272.530121 277.510864,259.050598 281.581787,238.994553 
	C284.642090,223.917572 280.628845,209.387131 270.537354,196.965881 
	C256.457031,179.634949 237.896790,173.293991 216.382980,175.141052 
	C201.756866,176.396759 188.925552,182.518188 177.446548,191.890244 
	C164.716309,202.283859 156.929047,215.542389 153.055679,231.187912 
	C148.645325,249.002457 151.021286,266.467072 157.758530,283.241211 
	C169.679428,312.921387 191.641113,331.867798 222.181976,340.489288 
	C235.118988,344.141296 248.563446,343.582550 261.990631,342.210876 
	C276.207703,340.758453 289.622009,336.715240 302.125244,330.283081 
	C331.107361,315.373566 351.836761,292.852966 363.141785,261.918243 
	C367.524017,249.926987 370.028259,237.753723 370.050171,224.978836 
	C370.070618,213.060898 376.540680,207.401215 385.201202,207.988281 
	C391.240173,208.397644 396.800201,213.784424 396.975281,219.849075 
	C397.768250,247.314255 390.113983,272.430206 376.531586,296.157745 
	C367.963501,311.125610 356.949829,323.979340 344.139404,335.107788 
	C324.336700,352.310425 301.530701,363.887512 275.539856,369.164917 
	C262.434479,371.825958 249.270767,372.891602 236.137421,371.804321 
	C219.093445,370.393311 202.561813,366.003998 188.113800,356.411957 
	C178.193954,349.826172 167.956940,343.176849 159.681961,334.765228 
	C141.399643,316.180878 130.225662,293.658752 125.823242,267.635895 
	C122.754219,249.494766 123.575729,231.826111 130.098099,214.846024 
	C143.527084,179.885513 168.546265,157.929962 205.497330,149.949203 
	C232.862701,144.038818 257.397095,150.496704 278.852356,167.654007 
	C294.281006,179.991943 304.123993,196.519241 307.907776,216.064194 
	C311.918518,236.781326 307.877014,256.174835 294.528351,272.600952 
	C282.476105,287.431763 266.762573,296.474335 247.303436,299.199005 
	C227.681992,301.946411 211.047546,296.254242 197.487747,282.706879 
	C183.078110,268.310455 177.560822,250.229721 182.163727,230.240005 
	C186.422348,211.745438 201.229218,197.289398 221.124969,193.894501 
	C226.985519,192.894485 232.519318,192.017120 237.514893,196.076202 
	C242.563568,200.178391 243.977097,205.086655 241.950439,210.910355 
	C240.108444,216.203430 234.799164,219.808807 228.535553,219.997559 
	C216.641006,220.355972 207.558701,229.669373 207.119583,242.005188 
	C206.646713,255.288971 216.542908,268.040894 229.415054,271.675873 
	C232.068466,272.425140 234.891373,272.574219 238.094818,272.999939 
z"/>
</svg>