<?xml version="1.0" standalone="yes"?>
<svg width="512" height="512">
<path style="fill:#ffffff; stroke:none;" d="M0 0L0 512L512 512L512 0L0 0z"/>
<path style="fill:#f8a1a1; stroke:none;" d="M251.667 18.3333L252.333 18.6667L251.667 18.3333z"/>
<path style="fill:#ed0000; stroke:none;" d="M113 108C78.5145 108 46.3985 128.194 48.0394 166C48.3758 173.752 50.1598 181.756 52.9144 189C54.098 192.113 57.9288 197.394 56.6983 200.79C55.474 204.17 49.6935 206.653 47 208.808C40.9722 213.631 35.5316 219.403 31.4668 226C14.7802 253.08 25.9194 298.196 59 308C42.6478 339.078 43.1006 384.088 82 398.455C92.0926 402.183 102.267 404 113 404C113 413.525 114.302 422.926 117.356 432C131.047 472.683 173.881 475.422 207 458C217.497 490.943 263.569 503.015 291 485.301C297.914 480.836 303.72 475.463 308.789 469C310.696 466.568 313.448 460.459 316.68 459.727C319.339 459.124 323.584 462.407 326 463.395C332.834 466.188 340.576 468.624 348 468.961C386.982 470.73 409 440.758 409 404C444.723 403.996 475.441 379.647 473.96 342C473.487 329.981 468.493 318.44 463 308C471.416 306.022 479.125 298.442 484.561 292C508.086 264.123 500.558 215.86 464 202C468.014 188.061 474.641 176.106 473.961 161C472.406 126.45 440.448 108.003 409 108C409 75.4467 389.572 43.8748 354 43.0146C339.612 42.6667 328.302 49.168 315 53C302.646 20.4159 258.996 9.36575 231 26.8148C224.422 30.9148 218.825 35.9467 214.004 42C211.864 44.6863 209.209 50.4531 205.791 51.5818C202.324 52.7266 197.199 48.8408 194 47.6983C186.543 45.0351 177.929 43.1962 170 43.0146C133.915 42.1885 113 75.2122 113 108z"/>
<path style="fill:#f35454; stroke:none;" d="M266 18L266 19L269 19L266 18z"/>
<path style="fill:#f57070; stroke:none;" d="M247.667 19.3333L248.333 19.6667L247.667 19.3333z"/>
<path style="fill:#f9a7a7; stroke:none;" d="M273.667 19.3333L274.333 19.6667L273.667 19.3333z"/>
<path style="fill:#f57777; stroke:none;" d="M233 25L234 26L233 25z"/>
<path style="fill:#f68080; stroke:none;" d="M290 26L291 27L290 26z"/>
<path style="fill:#f57777; stroke:none;" d="M293 28L294 29L293 28z"/>
<path style="fill:#f67c7c; stroke:none;" d="M297 31L298 32L297 31z"/>
<path style="fill:#f67f7f; stroke:none;" d="M223 32L224 33L223 32z"/>
<path style="fill:#f67979; stroke:none;" d="M215 40L216 41L215 40z"/>
<path style="fill:#f56e6e; stroke:none;" d="M307 41L308 42L307 41z"/>
<path style="fill:#f9a4a4; stroke:none;" d="M160.667 43.3333L161.333 43.6667L160.667 43.3333z"/>
<path style="fill:#f57171; stroke:none;" d="M175 43L175 44L178 44L175 43z"/>
<path style="fill:#fab9b9; stroke:none;" d="M342 43L342 44L345 44L342 43z"/>
<path style="fill:#f89c9c; stroke:none;" d="M359 43L359 44L362 44L359 43z"/>
<path style="fill:#f45d5d; stroke:none;" d="M156.667 44.3333L157.333 44.6667L156.667 44.3333z"/>
<path style="fill:#f46868; stroke:none;" d="M181 44L181 45L184 45L181 44z"/>
<path style="fill:#f57070; stroke:none;" d="M338.667 44.3333L339.333 44.6667L338.667 44.3333z"/>
<path style="fill:#f78a8a; stroke:none;" d="M364.667 44.3333L365.333 44.6667L364.667 44.3333z"/>
<path style="fill:#f46565; stroke:none;" d="M152.667 45.3333L153.333 45.6667L152.667 45.3333z"/>
<path style="fill:#f89e9e; stroke:none;" d="M186.667 45.3333L187.333 45.6667L186.667 45.3333z"/>
<path style="fill:#f67e7e; stroke:none;" d="M211 45L212 46L211 45z"/>
<path style="fill:#f46767; stroke:none;" d="M334.667 45.3333L335.333 45.6667L334.667 45.3333z"/>
<path style="fill:#f9a3a3; stroke:none;" d="M368.667 45.3333L369.333 45.6667L368.667 45.3333z"/>
<path style="fill:#f24c4c; stroke:none;" d="M331.667 46.3333L332.333 46.6667L331.667 46.3333z"/>
<path style="fill:#f89696; stroke:none;" d="M147 47L148 48L147 47z"/>
<path style="fill:#f68282; stroke:none;" d="M374 47L375 48L374 47z"/>
<path style="fill:#f68181; stroke:none;" d="M145 48L146 49L145 48z"/>
<path style="fill:#f56d6d; stroke:none;" d="M376 48L377 49L376 48z"/>
<path style="fill:#f78d8d; stroke:none;" d="M143 49L144 50L143 49z"/>
<path style="fill:#f78c8c; stroke:none;" d="M313 49L314 50L313 49z"/>
<path style="fill:#f57474; stroke:none;" d="M378 49L379 50L378 49z"/>
<path style="fill:#f79090; stroke:none;" d="M380 50L381 51L380 50z"/>
<path style="fill:#f67e7e; stroke:none;" d="M207 51L208 52L207 51z"/>
<path style="fill:#f67c7c; stroke:none;" d="M383 52L384 53L383 52z"/>
<path style="fill:#f67f7f; stroke:none;" d="M387 55L388 56L387 55z"/>
<path style="fill:#f79090; stroke:none;" d="M133 56L134 57L133 56z"/>
<path style="fill:#f57272; stroke:none;" d="M132 57L133 58L132 57z"/>
<path style="fill:#f57676; stroke:none;" d="M131 58L132 59L131 58z"/>
<path style="fill:#f57777; stroke:none;" d="M130 59L131 60L130 59z"/>
<path style="fill:#f67a7a; stroke:none;" d="M129 60L130 61L129 60z"/>
<path style="fill:#f57171; stroke:none;" d="M393 61L394 62L393 61z"/>
<path style="fill:#f79292; stroke:none;" d="M394 62L395 63L394 62z"/>
<path style="fill:#f68282; stroke:none;" d="M397 66L398 67L397 66z"/>
<path style="fill:#f78d8d; stroke:none;" d="M399 69L400 70L399 69z"/>
<path style="fill:#f79292; stroke:none;" d="M121 71L122 72L121 71z"/>
<path style="fill:#f67b7b; stroke:none;" d="M120 73L121 74L120 73z"/>
<path style="fill:#f68383; stroke:none;" d="M119 75L120 76L119 75z"/>
<path style="fill:#f35353; stroke:none;" d="M406.333 85.6667L406.667 86.3333L406.333 85.6667z"/>
<path style="fill:#f68383; stroke:none;" d="M114 89L114 92L115 92L114 89z"/>
<path style="fill:#f35959; stroke:none;" d="M407.333 89.6667L407.667 90.3333L407.333 89.6667z"/>
<path style="fill:#f89a9a; stroke:none;" d="M408 93L408 96L409 96L408 93z"/>
<path style="fill:#f8a0a0; stroke:none;" d="M113 94L113 97L114 97L113 94z"/>
<path style="fill:#f89999; stroke:none;" d="M409 100L409 108L415 108L415 107L410 107L409 100z"/>
<path style="fill:#f9aaaa; stroke:none;" d="M112 102L112 107L105 107L105 108L113 108L112 102z"/>
<path style="fill:#f9a8a8; stroke:none;" d="M97.6667 108.333L98.3333 108.667L97.6667 108.333z"/>
<path style="fill:#f46262; stroke:none;" d="M99 108L99 109L102 109L99 108z"/>
<path style="fill:#f24d4d; stroke:none;" d="M419.667 108.333L420.333 108.667L419.667 108.333z"/>
<path style="fill:#f89696; stroke:none;" d="M421 108L421 109L424 109L421 108z"/>
<path style="fill:#f46969; stroke:none;" d="M93.6667 109.333L94.3333 109.667L93.6667 109.333z"/>
<path style="fill:#f78a8a; stroke:none;" d="M426.667 109.333L427.333 109.667L426.667 109.333z"/>
<path style="fill:#f45e5e; stroke:none;" d="M89.6667 110.333L90.3333 110.667L89.6667 110.333z"/>
<path style="fill:#f79393; stroke:none;" d="M430.667 110.333L431.333 110.667L430.667 110.333z"/>
<path style="fill:#f24c4c; stroke:none;" d="M86.6667 111.333L87.3333 111.667L86.6667 111.333z"/>
<path style="fill:#f56d6d; stroke:none;" d="M439 113L440 114L439 113z"/>
<path style="fill:#f57676; stroke:none;" d="M73 117L74 118L73 117z"/>
<path style="fill:#f78b8b; stroke:none;" d="M447 117L448 118L447 117z"/>
<path style="fill:#f68080; stroke:none;" d="M450 119L451 120L450 119z"/>
<path style="fill:#f57777; stroke:none;" d="M66 122L67 123L66 122z"/>
<path style="fill:#f79191; stroke:none;" d="M454 122L455 123L454 122z"/>
<path style="fill:#f56e6e; stroke:none;" d="M455 123L456 124L455 123z"/>
<path style="fill:#f57777; stroke:none;" d="M59 129L60 130L59 129z"/>
<path style="fill:#f78c8c; stroke:none;" d="M461 129L462 130L461 129z"/>
<path style="fill:#f67d7d; stroke:none;" d="M56 133L57 134L56 133z"/>
<path style="fill:#f67e7e; stroke:none;" d="M464 133L465 134L464 133z"/>
<path style="fill:#f79090; stroke:none;" d="M466 136L467 137L466 136z"/>
<path style="fill:#f78e8e; stroke:none;" d="M53 138L54 139L53 138z"/>
<path style="fill:#f57676; stroke:none;" d="M467 138L468 139L467 138z"/>
<path style="fill:#f79292; stroke:none;" d="M52 140L53 141L52 140z"/>
<path style="fill:#f68484; stroke:none;" d="M469 142L470 143L469 142z"/>
<path style="fill:#f89999; stroke:none;" d="M216 146L216 147L229 147L216 146z"/>
<path style="fill:#f35252; stroke:none;" d="M229 146L229 147L232 147L229 146z"/>
<path style="fill:#f68282; stroke:none;" d="M207 147L207 148L210 148L207 147z"/>
<path style="fill:#ffffff; stroke:none;" d="M210 147.428C196.934 149.3 184.511 153.425 173 159.862C162.888 165.516 153.898 173.147 146.439 182C88.5656 250.685 145.119 364.821 232 370.91C297.32 375.489 357.046 339.589 384.231 280C391.524 264.012 395.993 245.607 396 228C396.002 222.162 397.301 214.758 392.772 210.228C386.545 204.002 374.303 206.42 370.457 214.004C367.154 220.517 368.804 230.744 367.586 238C365.135 252.614 360.151 267.219 352.547 280C320.116 334.514 236.018 367.111 184 318.91C163.766 300.16 148.17 272.546 150.09 244C152.865 202.734 194.779 164.651 237 175.924C276.377 186.436 301.594 244.179 257 266.623C250.419 269.935 241.4 272.833 234 271.535C217.416 268.625 200.354 249.076 209.328 232C217.017 217.369 245.402 222.101 241.772 202C239.887 191.564 228.369 191.199 220 192.289C202.936 194.512 187.31 207.72 181.825 224C166.56 269.304 210.333 305.726 253 297.539C299.551 288.607 321.216 234.872 300.73 194C283.963 160.547 246.818 142.154 210 147.428z"/>
<path style="fill:#f9a3a3; stroke:none;" d="M235 147L235 148L238 148L235 147z"/>
<path style="fill:#f35b5b; stroke:none;" d="M471.333 147.667L471.667 148.333L471.333 147.667z"/>
<path style="fill:#f46a6a; stroke:none;" d="M49.3333 148.667L49.6667 149.333L49.3333 148.667z"/>
<path style="fill:#f8a0a0; stroke:none;" d="M202.667 148.333L203.333 148.667L202.667 148.333z"/>
<path style="fill:#f57676; stroke:none;" d="M241.667 148.333L242.333 148.667L241.667 148.333z"/>
<path style="fill:#fab8b8; stroke:none;" d="M198.667 149.333L199.333 149.667L198.667 149.333z"/>
<path style="fill:#f9a5a5; stroke:none;" d="M194.667 150.333L195.333 150.667L194.667 150.333z"/>
<path style="fill:#fababa; stroke:none;" d="M191.667 151.333L192.333 151.667L191.667 151.333z"/>
<path style="fill:#f35656; stroke:none;" d="M472.333 151.667L472.667 152.333L472.333 151.667z"/>
<path style="fill:#f78f8f; stroke:none;" d="M48.3333 152.667L48.6667 153.333L48.3333 152.667z"/>
<path style="fill:#f79090; stroke:none;" d="M257 153L258 154L257 153z"/>
<path style="fill:#f24444; stroke:none;" d="M48 154L48 157L49 157L48 154z"/>
<path style="fill:#f8a1a1; stroke:none;" d="M473.333 155.667L473.667 156.333L473.333 155.667z"/>
<path style="fill:#f68181; stroke:none;" d="M179 156L180 157L179 156z"/>
<path style="fill:#f57777; stroke:none;" d="M177 157L178 158L177 157z"/>
<path style="fill:#f57171; stroke:none;" d="M175 158L176 159L175 158z"/>
<path style="fill:#f78787; stroke:none;" d="M270 160L271 161L270 160z"/>
<path style="fill:#fbcdcd; stroke:none;" d="M47 161L47 167L48 167L47 161z"/>
<path style="fill:#f67f7f; stroke:none;" d="M170 161L171 162L170 161z"/>
<path style="fill:#f57777; stroke:none;" d="M273 162L274 163L273 162z"/>
<path style="fill:#f67d7d; stroke:none;" d="M164 165L165 166L164 165z"/>
<path style="fill:#f56f6f; stroke:none;" d="M277 165L278 166L277 165z"/>
<path style="fill:#f57070; stroke:none;" d="M160 168L161 169L160 168z"/>
<path style="fill:#f35353; stroke:none;" d="M48.3333 170.667L48.6667 171.333L48.3333 170.667z"/>
<path style="fill:#f67c7c; stroke:none;" d="M473 170L473 173L474 173L473 170z"/>
<path style="fill:#f8a0a0; stroke:none;" d="M48 172L48 175L49 175L48 172z"/>
<path style="fill:#f78b8b; stroke:none;" d="M214 174L214 175L218 175L214 174z"/>
<path style="fill:#f35555; stroke:none;" d="M218 174L218 175L230 175L218 174z"/>
<path style="fill:#f57676; stroke:none;" d="M209.667 175.333L210.333 175.667L209.667 175.333z"/>
<path style="fill:#f45d5d; stroke:none;" d="M233 175L233 176L236 176L233 175z"/>
<path style="fill:#f24c4c; stroke:none;" d="M205.667 176.333L206.333 176.667L205.667 176.333z"/>
<path style="fill:#f89898; stroke:none;" d="M238.667 176.333L239.333 176.667L238.667 176.333z"/>
<path style="fill:#f57474; stroke:none;" d="M472 176L472 179L473 179L472 176z"/>
<path style="fill:#f89f9f; stroke:none;" d="M49.3333 177.667L49.6667 178.333L49.3333 177.667z"/>
<path style="fill:#f45f5f; stroke:none;" d="M201.667 177.333L202.333 177.667L201.667 177.333z"/>
<path style="fill:#f57171; stroke:none;" d="M290 178L291 179L290 178z"/>
<path style="fill:#f67f7f; stroke:none;" d="M249 180L250 181L249 180z"/>
<path style="fill:#fab5b5; stroke:none;" d="M50.3333 181.667L50.6667 182.333L50.3333 181.667z"/>
<path style="fill:#f9aeae; stroke:none;" d="M471.333 181.667L471.667 182.333L471.333 181.667z"/>
<path style="fill:#f68080; stroke:none;" d="M293 182L294 183L293 182z"/>
<path style="fill:#f89696; stroke:none;" d="M145 183L146 184L145 183z"/>
<path style="fill:#f9b1b1; stroke:none;" d="M51.3333 184.667L51.6667 185.333L51.3333 184.667z"/>
<path style="fill:#f56e6e; stroke:none;" d="M257 185L258 186L257 185z"/>
<path style="fill:#f78b8b; stroke:none;" d="M295 185L296 186L295 185z"/>
<path style="fill:#f46a6a; stroke:none;" d="M297 188L298 189L297 188z"/>
<path style="fill:#f56e6e; stroke:none;" d="M262 189L263 190L262 189z"/>
<path style="fill:#f67e7e; stroke:none;" d="M139 191L140 192L139 191z"/>
<path style="fill:#f68383; stroke:none;" d="M176 191L177 192L176 191z"/>
<path style="fill:#f56b6b; stroke:none;" d="M222 191L222 192L232 192L222 191z"/>
<path style="fill:#f57171; stroke:none;" d="M54 192L55 193L54 192z"/>
<path style="fill:#f78b8b; stroke:none;" d="M217.667 192.333L218.333 192.667L217.667 192.333z"/>
<path style="fill:#f46969; stroke:none;" d="M265 192L266 193L265 192z"/>
<path style="fill:#f57474; stroke:none;" d="M266 193L267 194L266 193z"/>
<path style="fill:#f56c6c; stroke:none;" d="M137 194L138 195L137 194z"/>
<path style="fill:#f68585; stroke:none;" d="M267 194L268 195L267 194z"/>
<path style="fill:#f56b6b; stroke:none;" d="M57 198L58 199L57 198M168 199L169 200L168 199z"/>
<path style="fill:#f67f7f; stroke:none;" d="M201 199L202 200L201 199z"/>
<path style="fill:#f78d8d; stroke:none;" d="M167 200L168 201L167 200z"/>
<path style="fill:#f56b6b; stroke:none;" d="M56 202L57 203L56 202z"/>
<path style="fill:#f67979; stroke:none;" d="M242 202L242 207L243 207L242 202z"/>
<path style="fill:#f78a8a; stroke:none;" d="M467 203L468 204L467 203z"/>
<path style="fill:#f57171; stroke:none;" d="M164 204L165 205L164 204z"/>
<path style="fill:#f79292; stroke:none;" d="M275 206L276 207L275 206z"/>
<path style="fill:#f9b0b0; stroke:none;" d="M305.333 206.667L305.667 207.333L305.333 206.667z"/>
<path style="fill:#fcd2d2; stroke:none;" d="M379 206L379 207L387 207L379 206z"/>
<path style="fill:#f89696; stroke:none;" d="M474 208L475 209L474 208z"/>
<path style="fill:#f68080; stroke:none;" d="M46 209L47 210L46 209z"/>
<path style="fill:#f67f7f; stroke:none;" d="M306.333 209.667L306.667 210.333L306.333 209.667z"/>
<path style="fill:#f68686; stroke:none;" d="M160 210L161 211L160 210z"/>
<path style="fill:#f57474; stroke:none;" d="M189 210L190 211L189 210z"/>
<path style="fill:#f67e7e; stroke:none;" d="M241 210L242 211L241 210z"/>
<path style="fill:#f67a7a; stroke:none;" d="M240 212L241 213L240 212z"/>
<path style="fill:#f45f5f; stroke:none;" d="M278.333 213.667L278.667 214.333L278.333 213.667z"/>
<path style="fill:#f46464; stroke:none;" d="M307 213L307 216L308 216L307 213z"/>
<path style="fill:#f67f7f; stroke:none;" d="M185 216L186 217L185 216z"/>
<path style="fill:#fcd8d8; stroke:none;" d="M396 216L396 229L397 229L396 216z"/>
<path style="fill:#f24646; stroke:none;" d="M279.333 217.667L279.667 218.333L279.333 217.667z"/>
<path style="fill:#f56f6f; stroke:none;" d="M36 219L37 220L36 219z"/>
<path style="fill:#fab8b8; stroke:none;" d="M126.333 219.667L126.667 220.333L126.333 219.667z"/>
<path style="fill:#f46565; stroke:none;" d="M224 219L224 220L229 220L224 219z"/>
<path style="fill:#f78a8a; stroke:none;" d="M308 219L308 223L309 223L308 219z"/>
<path style="fill:#f78888; stroke:none;" d="M183 220L184 221L183 220z"/>
<path style="fill:#f78787; stroke:none;" d="M486 220L487 221L486 220z"/>
<path style="fill:#f78d8d; stroke:none;" d="M280.333 221.667L280.667 222.333L280.333 221.667z"/>
<path style="fill:#f68080; stroke:none;" d="M125.333 222.667L125.667 223.333L125.333 222.667z"/>
<path style="fill:#fcd4d4; stroke:none;" d="M308 223L308 237L309 237L308 223z"/>
<path style="fill:#f78989; stroke:none;" d="M214 224L215 225L214 224z"/>
<path style="fill:#f57373; stroke:none;" d="M213 225L214 226L213 225z"/>
<path style="fill:#f24b4b; stroke:none;" d="M153.333 226.667L153.667 227.333L153.333 226.667z"/>
<path style="fill:#f67f7f; stroke:none;" d="M212 226L213 227L212 226z"/>
<path style="fill:#f79191; stroke:none;" d="M124.333 227.667L124.667 228.333L124.333 227.667z"/>
<path style="fill:#f89e9e; stroke:none;" d="M180.333 228.667L180.667 229.333L180.333 228.667z"/>
<path style="fill:#f68585; stroke:none;" d="M152.333 229.667L152.667 230.333L152.333 229.667z"/>
<path style="fill:#f35454; stroke:none;" d="M396 229L396 234L397 234L396 229z"/>
<path style="fill:#f78c8c; stroke:none;" d="M492 229L493 230L492 229z"/>
<path style="fill:#f79494; stroke:none;" d="M368 230L368 233L369 233L368 230z"/>
<path style="fill:#f89696; stroke:none;" d="M28 231L29 232L28 231z"/>
<path style="fill:#f78989; stroke:none;" d="M493 231L494 232L493 231z"/>
<path style="fill:#f46262; stroke:none;" d="M123 232L123 235L124 235L123 232z"/>
<path style="fill:#f46363; stroke:none;" d="M179.333 232.667L179.667 233.333L179.333 232.667z"/>
<path style="fill:#f89595; stroke:none;" d="M494 233L495 234L494 233z"/>
<path style="fill:#f68484; stroke:none;" d="M151.333 234.667L151.667 235.333L151.333 234.667z"/>
<path style="fill:#f46060; stroke:none;" d="M207.333 235.667L207.667 236.333L207.333 235.667z"/>
<path style="fill:#f9a5a5; stroke:none;" d="M280.333 235.667L280.667 236.333L280.333 235.667z"/>
<path style="fill:#f35252; stroke:none;" d="M367 236L367 239L368 239L367 236z"/>
<path style="fill:#f35050; stroke:none;" d="M308.333 237.667L308.667 238.333L308.333 237.667z"/>
<path style="fill:#fab2b2; stroke:none;" d="M395 237L395 240L396 240L395 237z"/>
<path style="fill:#f35050; stroke:none;" d="M496.333 238.667L496.667 239.333L496.333 238.667z"/>
<path style="fill:#f79292; stroke:none;" d="M279.333 239.667L279.667 240.333L279.333 239.667z"/>
<path style="fill:#f35252; stroke:none;" d="M122 240L122 254L123 254L122 240z"/>
<path style="fill:#f79393; stroke:none;" d="M150 240L150 253L151 253L150 240z"/>
<path style="fill:#f24d4d; stroke:none;" d="M395 240L395 243L396 243L395 240z"/>
<path style="fill:#f67979; stroke:none;" d="M307.333 242.667L307.667 243.333L307.333 242.667z"/>
<path style="fill:#f78d8d; stroke:none;" d="M366.333 243.667L366.667 244.333L366.333 243.667z"/>
<path style="fill:#fabfbf; stroke:none;" d="M179 245L179 248L180 248L179 245z"/>
<path style="fill:#f56b6b; stroke:none;" d="M207 245L207 248L208 248L207 245z"/>
<path style="fill:#f57777; stroke:none;" d="M394 245L394 248L395 248L394 245z"/>
<path style="fill:#f13d3d; stroke:none;" d="M23 246L23 250L24 250L23 246z"/>
<path style="fill:#f24040; stroke:none;" d="M498 246L498 250L499 250L498 246z"/>
<path style="fill:#f68080; stroke:none;" d="M365.333 247.667L365.667 248.333L365.333 247.667z"/>
<path style="fill:#f35353; stroke:none;" d="M179.333 248.667L179.667 249.333L179.333 248.667z"/>
<path style="fill:#f13f3f; stroke:none;" d="M305.333 250.667L305.667 251.333L305.333 250.667z"/>
<path style="fill:#f67e7e; stroke:none;" d="M393.333 250.667L393.667 251.333L393.333 250.667z"/>
<path style="fill:#f46161; stroke:none;" d="M180.333 253.667L180.667 254.333L180.333 253.667z"/>
<path style="fill:#fabfbf; stroke:none;" d="M363.333 255.667L363.667 256.333L363.333 255.667z"/>
<path style="fill:#f35050; stroke:none;" d="M392.333 255.667L392.667 256.333L392.333 255.667z"/>
<path style="fill:#f57272; stroke:none;" d="M270 256L271 257L270 256z"/>
<path style="fill:#f24141; stroke:none;" d="M151 257L151 260L152 260L151 257z"/>
<path style="fill:#f35353; stroke:none;" d="M181.333 257.667L181.667 258.333L181.333 257.667z"/>
<path style="fill:#f57373; stroke:none;" d="M212 258L213 259L212 258z"/>
<path style="fill:#f24040; stroke:none;" d="M23 259L23 262L24 262L23 259z"/>
<path style="fill:#f24646; stroke:none;" d="M498 259L498 262L499 262L498 259z"/>
<path style="fill:#f67d7d; stroke:none;" d="M123 260L123 263L124 263L123 260z"/>
<path style="fill:#f9a3a3; stroke:none;" d="M151.333 260.667L151.667 261.333L151.333 260.667z"/>
<path style="fill:#f78888; stroke:none;" d="M266 260L267 261L266 260z"/>
<path style="fill:#f9a9a9; stroke:none;" d="M23.3333 262.667L23.6667 263.333L23.3333 262.667z"/>
<path style="fill:#f35858; stroke:none;" d="M390.333 262.667L390.667 263.333L390.333 262.667z"/>
<path style="fill:#f9afaf; stroke:none;" d="M498.333 262.667L498.667 263.333L498.333 262.667z"/>
<path style="fill:#f67e7e; stroke:none;" d="M183 263L184 264L183 263z"/>
<path style="fill:#f56c6c; stroke:none;" d="M262 263L263 264L262 263z"/>
<path style="fill:#f78a8a; stroke:none;" d="M152.333 265.667L152.667 266.333L152.333 265.667z"/>
<path style="fill:#f78f8f; stroke:none;" d="M184 265L185 266L184 265z"/>
<path style="fill:#f78787; stroke:none;" d="M259 265L260 266L259 265z"/>
<path style="fill:#f78c8c; stroke:none;" d="M298 265L299 266L298 265z"/>
<path style="fill:#f78989; stroke:none;" d="M497.333 266.667L497.667 267.333L497.333 266.667z"/>
<path style="fill:#f67979; stroke:none;" d="M124.333 267.667L124.667 268.333L124.333 267.667z"/>
<path style="fill:#f57676; stroke:none;" d="M255 267L256 268L255 267z"/>
<path style="fill:#f79292; stroke:none;" d="M296 268L297 269L296 268z"/>
<path style="fill:#f78d8d; stroke:none;" d="M186 269L187 270L186 269z"/>
<path style="fill:#fab2b2; stroke:none;" d="M25.3333 270.667L25.6667 271.333L25.3333 270.667z"/>
<path style="fill:#fab9b9; stroke:none;" d="M153.333 270.667L153.667 271.333L153.333 270.667z"/>
<path style="fill:#f24848; stroke:none;" d="M229.667 270.333L230.333 270.667L229.667 270.333z"/>
<path style="fill:#f57474; stroke:none;" d="M245.667 270.333L246.333 270.667L245.667 270.333z"/>
<path style="fill:#fab7b7; stroke:none;" d="M496.333 270.667L496.667 271.333L496.333 270.667z"/>
<path style="fill:#f68080; stroke:none;" d="M233 271L233 272L242 272L233 271z"/>
<path style="fill:#f68181; stroke:none;" d="M125.333 272.667L125.667 273.333L125.333 272.667z"/>
<path style="fill:#f78989; stroke:none;" d="M293 272L294 273L293 272z"/>
<path style="fill:#f79494; stroke:none;" d="M154.333 273.667L154.667 274.333L154.333 273.667z"/>
<path style="fill:#f35454; stroke:none;" d="M126.333 277.667L126.667 278.333L126.333 277.667z"/>
<path style="fill:#f56f6f; stroke:none;" d="M193 279L194 280L193 279z"/>
<path style="fill:#f78787; stroke:none;" d="M194 280L195 281L194 280z"/>
<path style="fill:#f79494; stroke:none;" d="M352 280L353 281L352 280z"/>
<path style="fill:#f67f7f; stroke:none;" d="M383 281L384 282L383 281z"/>
<path style="fill:#f46a6a; stroke:none;" d="M31 283L32 284L31 283z"/>
<path style="fill:#f79090; stroke:none;" d="M197 283L198 284L197 283z"/>
<path style="fill:#f67b7b; stroke:none;" d="M282 283L283 284L282 283z"/>
<path style="fill:#f79494; stroke:none;" d="M382 283L383 284L382 283z"/>
<path style="fill:#f24444; stroke:none;" d="M128.333 284.667L128.667 285.333L128.333 284.667z"/>
<path style="fill:#f67979; stroke:none;" d="M198 284L199 285L198 284z"/>
<path style="fill:#f56d6d; stroke:none;" d="M33 286L34 287L33 286z"/>
<path style="fill:#f57474; stroke:none;" d="M278 286L279 287L278 286z"/>
<path style="fill:#f24242; stroke:none;" d="M129.333 287.667L129.667 288.333L129.333 287.667z"/>
<path style="fill:#f68080; stroke:none;" d="M203 288L204 289L203 288z"/>
<path style="fill:#f56f6f; stroke:none;" d="M275 288L276 289L275 288z"/>
<path style="fill:#f78b8b; stroke:none;" d="M160 289L161 290L160 289z"/>
<path style="fill:#f46969; stroke:none;" d="M346 289L347 290L346 289z"/>
<path style="fill:#f79393; stroke:none;" d="M379 289L380 290L379 289z"/>
<path style="fill:#f67b7b; stroke:none;" d="M36 290L37 291L36 290z"/>
<path style="fill:#f67f7f; stroke:none;" d="M206 290L207 291L206 290z"/>
<path style="fill:#f56f6f; stroke:none;" d="M485 290L486 291L485 290z"/>
<path style="fill:#f78a8a; stroke:none;" d="M378 291L379 292L378 291z"/>
<path style="fill:#f79090; stroke:none;" d="M132 295L133 296L132 295z"/>
<path style="fill:#f46969; stroke:none;" d="M164 296L165 297L164 296z"/>
<path style="fill:#fab4b4; stroke:none;" d="M222.667 297.333L223.333 297.667L222.667 297.333z"/>
<path style="fill:#f35b5b; stroke:none;" d="M253.667 297.333L254.333 297.667L253.667 297.333z"/>
<path style="fill:#f46a6a; stroke:none;" d="M225.667 298.333L226.333 298.667L225.667 298.333z"/>
<path style="fill:#fab9b9; stroke:none;" d="M246 298L246 299L249 299L246 298z"/>
<path style="fill:#f57878; stroke:none;" d="M339 298L340 299L339 298z"/>
<path style="fill:#f67979; stroke:none;" d="M374 298L375 299L374 298z"/>
<path style="fill:#f56d6d; stroke:none;" d="M45 299L46 300L45 299z"/>
<path style="fill:#f46666; stroke:none;" d="M231 299L231 300L242 300L231 299z"/>
<path style="fill:#f79090; stroke:none;" d="M46 300L47 301L46 300z"/>
<path style="fill:#f57676; stroke:none;" d="M475 300L476 301L475 300z"/>
<path style="fill:#f78888; stroke:none;" d="M372 301L373 302L372 301z"/>
<path style="fill:#f56c6c; stroke:none;" d="M168 302L169 303L168 302z"/>
<path style="fill:#f57575; stroke:none;" d="M50 303L51 304L50 303z"/>
<path style="fill:#f89696; stroke:none;" d="M370 304L371 305L370 304z"/>
<path style="fill:#f57777; stroke:none;" d="M171 306L172 307L171 306z"/>
<path style="fill:#f57878; stroke:none;" d="M56 307L57 308L56 307z"/>
<path style="fill:#f57171; stroke:none;" d="M368 307L369 308L368 307z"/>
<path style="fill:#f57878; stroke:none;" d="M58.3333 308.667L58.6667 309.333L58.3333 308.667z"/>
<path style="fill:#f24b4b; stroke:none;" d="M463.333 308.667L463.667 309.333L463.333 308.667z"/>
<path style="fill:#f89595; stroke:none;" d="M139 309L140 310L139 309z"/>
<path style="fill:#f56f6f; stroke:none;" d="M140 311L141 312L140 311z"/>
<path style="fill:#f57777; stroke:none;" d="M326 311L327 312L326 311z"/>
<path style="fill:#f67d7d; stroke:none;" d="M365 311L366 312L365 311z"/>
<path style="fill:#f89797; stroke:none;" d="M325 312L326 313L325 312z"/>
<path style="fill:#f78a8a; stroke:none;" d="M142 314L143 315L142 314z"/>
<path style="fill:#f68181; stroke:none;" d="M361 316L362 317L361 316z"/>
<path style="fill:#f79090; stroke:none;" d="M144 317L145 318L144 317z"/>
<path style="fill:#f57777; stroke:none;" d="M146 320L147 321L146 320z"/>
<path style="fill:#f79292; stroke:none;" d="M186 321L187 322L186 321z"/>
<path style="fill:#f56e6e; stroke:none;" d="M149 324L150 325L149 324z"/>
<path style="fill:#f79090; stroke:none;" d="M190 324L191 325L190 324z"/>
<path style="fill:#f67c7c; stroke:none;" d="M308 324L309 325L308 324z"/>
<path style="fill:#f24444; stroke:none;" d="M470.333 324.667L470.667 325.333L470.333 324.667z"/>
<path style="fill:#f68282; stroke:none;" d="M193 326L194 327L193 326z"/>
<path style="fill:#f46969; stroke:none;" d="M352 326L353 327L352 326z"/>
<path style="fill:#f46161; stroke:none;" d="M471.333 327.667L471.667 328.333L471.333 327.667z"/>
<path style="fill:#f57474; stroke:none;" d="M198 329L199 330L198 329z"/>
<path style="fill:#f56e6e; stroke:none;" d="M154 330L155 331L154 330z"/>
<path style="fill:#f56d6d; stroke:none;" d="M49.3333 331.667L49.6667 332.333L49.3333 331.667z"/>
<path style="fill:#f68282; stroke:none;" d="M155 331L156 332L155 331z"/>
<path style="fill:#f46868; stroke:none;" d="M472.333 331.667L472.667 332.333L472.333 331.667z"/>
<path style="fill:#f79292; stroke:none;" d="M156 332L157 333L156 332z"/>
<path style="fill:#f57676; stroke:none;" d="M292 332L293 333L292 332z"/>
<path style="fill:#f9a6a6; stroke:none;" d="M48.3333 335.667L48.6667 336.333L48.3333 335.667z"/>
<path style="fill:#f9aeae; stroke:none;" d="M473 335L473 338L474 338L473 335z"/>
<path style="fill:#f67b7b; stroke:none;" d="M341 336L342 337L341 336z"/>
<path style="fill:#f35b5b; stroke:none;" d="M48.3333 337.667L48.6667 338.333L48.3333 337.667z"/>
<path style="fill:#f9a7a7; stroke:none;" d="M277.667 337.333L278.333 337.667L277.667 337.333z"/>
<path style="fill:#f35b5b; stroke:none;" d="M219.667 338.333L220.333 338.667L219.667 338.333z"/>
<path style="fill:#f89797; stroke:none;" d="M273.667 338.333L274.333 338.667L273.667 338.333z"/>
<path style="fill:#f78c8c; stroke:none;" d="M163 339L164 340L163 339z"/>
<path style="fill:#f45e5e; stroke:none;" d="M223.667 339.333L224.333 339.667L223.667 339.333z"/>
<path style="fill:#f57676; stroke:none;" d="M268 339L268 340L271 340L268 339z"/>
<path style="fill:#f56e6e; stroke:none;" d="M164 340L165 341L164 340z"/>
<path style="fill:#f78f8f; stroke:none;" d="M227 340L227 341L230 341L227 340z"/>
<path style="fill:#f24949; stroke:none;" d="M261 340L261 341L264 341L261 340z"/>
<path style="fill:#fabfbf; stroke:none;" d="M264.667 340.333L265.333 340.667L264.667 340.333z"/>
<path style="fill:#f57373; stroke:none;" d="M336 340L337 341L336 340z"/>
<path style="fill:#f57777; stroke:none;" d="M233 341L233 342L237 342L233 341z"/>
<path style="fill:#f9a9a9; stroke:none;" d="M253 341L253 342L259 342L253 341z"/>
<path style="fill:#fbc7c7; stroke:none;" d="M47 343L47 350L48 350L47 343z"/>
<path style="fill:#f56e6e; stroke:none;" d="M332 343L333 344L332 343z"/>
<path style="fill:#f67c7c; stroke:none;" d="M170 345L171 346L170 345z"/>
<path style="fill:#f78787; stroke:none;" d="M329 345L330 346L329 345z"/>
<path style="fill:#f67f7f; stroke:none;" d="M326 347L327 348L326 347z"/>
<path style="fill:#f68282; stroke:none;" d="M174 348L175 349L174 348z"/>
<path style="fill:#f35656; stroke:none;" d="M473 349L473 354L474 354L473 349z"/>
<path style="fill:#f79494; stroke:none;" d="M321 350L322 351L321 350z"/>
<path style="fill:#f57474; stroke:none;" d="M316 353L317 354L316 353z"/>
<path style="fill:#f35858; stroke:none;" d="M48 354L48 357L49 357L48 354z"/>
<path style="fill:#f56e6e; stroke:none;" d="M183 354L184 355L183 354z"/>
<path style="fill:#f78888; stroke:none;" d="M314 354L315 355L314 354z"/>
<path style="fill:#f79090; stroke:none;" d="M312 355L313 356L312 355z"/>
<path style="fill:#f78e8e; stroke:none;" d="M310 356L311 357L310 356z"/>
<path style="fill:#f67f7f; stroke:none;" d="M308 357L309 358L308 357z"/>
<path style="fill:#f79494; stroke:none;" d="M472.333 358.667L472.667 359.333L472.333 358.667z"/>
<path style="fill:#f46969; stroke:none;" d="M192 359L193 360L192 359z"/>
<path style="fill:#f78989; stroke:none;" d="M49.3333 360.667L49.6667 361.333L49.3333 360.667z"/>
<path style="fill:#fab3b3; stroke:none;" d="M471.333 362.667L471.667 363.333L471.333 362.667z"/>
<path style="fill:#fab8b8; stroke:none;" d="M50.3333 364.667L50.6667 365.333L50.3333 364.667z"/>
<path style="fill:#f24242; stroke:none;" d="M290.667 364.333L291.333 364.667L290.667 364.333z"/>
<path style="fill:#f24444; stroke:none;" d="M287.667 365.333L288.333 365.667L287.667 365.333z"/>
<path style="fill:#f45f5f; stroke:none;" d="M283.667 366.333L284.333 366.667L283.667 366.333z"/>
<path style="fill:#f46a6a; stroke:none;" d="M51 367L52 368L51 367z"/>
<path style="fill:#f9aeae; stroke:none;" d="M213.667 367.333L214.333 367.667L213.667 367.333z"/>
<path style="fill:#f46969; stroke:none;" d="M279.667 367.333L280.333 367.667L279.667 367.333z"/>
<path style="fill:#f9a5a5; stroke:none;" d="M217.667 368.333L218.333 368.667L217.667 368.333z"/>
<path style="fill:#f89595; stroke:none;" d="M274 368L274 369L277 369L274 368z"/>
<path style="fill:#f68080; stroke:none;" d="M221 369L221 370L224 370L221 369M269 369L269 370L272 370L269 369z"/>
<path style="fill:#f46060; stroke:none;" d="M226 370L226 371L229 371L226 370z"/>
<path style="fill:#f9acac; stroke:none;" d="M261.667 370.333L262.333 370.667L261.667 370.333z"/>
<path style="fill:#f46969; stroke:none;" d="M263.667 370.333L264.333 370.667L263.667 370.333z"/>
<path style="fill:#f68080; stroke:none;" d="M468 370L469 371L468 370z"/>
<path style="fill:#f45d5d; stroke:none;" d="M233 371L233 372L237 372L233 371z"/>
<path style="fill:#f9aaaa; stroke:none;" d="M237 371L237 372L254 372L237 371z"/>
<path style="fill:#f68383; stroke:none;" d="M467 372L468 373L467 372z"/>
<path style="fill:#f68585; stroke:none;" d="M56 377L57 378L56 377z"/>
<path style="fill:#f68484; stroke:none;" d="M464 377L465 378L464 377z"/>
<path style="fill:#f56b6b; stroke:none;" d="M59 381L60 382L59 381z"/>
<path style="fill:#f67e7e; stroke:none;" d="M461 381L462 382L461 381z"/>
<path style="fill:#f67f7f; stroke:none;" d="M453 389L454 390L453 389z"/>
<path style="fill:#f57777; stroke:none;" d="M449 392L450 393L449 392z"/>
<path style="fill:#f57070; stroke:none;" d="M74 394L75 395L74 394z"/>
<path style="fill:#f78f8f; stroke:none;" d="M446 394L447 395L446 394z"/>
<path style="fill:#f57777; stroke:none;" d="M438 398L439 399L438 398z"/>
<path style="fill:#f24242; stroke:none;" d="M84.6667 399.333L85.3333 399.667L84.6667 399.333z"/>
<path style="fill:#f24040; stroke:none;" d="M87.6667 400.333L88.3333 400.667L87.6667 400.333z"/>
<path style="fill:#f89999; stroke:none;" d="M429.667 401.333L430.333 401.667L429.667 401.333z"/>
<path style="fill:#f67a7a; stroke:none;" d="M94 402L94 403L97 403L94 402z"/>
<path style="fill:#f46a6a; stroke:none;" d="M424 402L424 403L427 403L424 402z"/>
<path style="fill:#f89d9d; stroke:none;" d="M99 403L99 404L102 404L99 403z"/>
<path style="fill:#f78a8a; stroke:none;" d="M419 403L419 404L422 404L419 403z"/>
<path style="fill:#fcd1d1; stroke:none;" d="M107 404L107 405L112 405L112 410L113 410L113 404L107 404z"/>
<path style="fill:#f9adad; stroke:none;" d="M409 404L409 410L410 410L409 404z"/>
<path style="fill:#f79292; stroke:none;" d="M113.333 415.667L113.667 416.333L113.333 415.667z"/>
<path style="fill:#f46767; stroke:none;" d="M408 415L408 418L409 418L408 415M114 420L114 423L115 423L114 420z"/>
<path style="fill:#f56e6e; stroke:none;" d="M407 421L407 424L408 424L407 421z"/>
<path style="fill:#f78f8f; stroke:none;" d="M115.333 425.667L115.667 426.333L115.333 425.667z"/>
<path style="fill:#f9a6a6; stroke:none;" d="M406.333 426.667L406.667 427.333L406.333 426.667z"/>
<path style="fill:#f57373; stroke:none;" d="M403 435L404 436L403 435z"/>
<path style="fill:#f68484; stroke:none;" d="M119 437L120 438L119 437z"/>
<path style="fill:#f57676; stroke:none;" d="M120 439L121 440L120 439z"/>
<path style="fill:#f78a8a; stroke:none;" d="M121 441L122 442L121 441z"/>
<path style="fill:#f67e7e; stroke:none;" d="M399 443L400 444L399 443z"/>
<path style="fill:#f56e6e; stroke:none;" d="M397 446L398 447L397 446z"/>
<path style="fill:#f67979; stroke:none;" d="M394 450L395 451L394 450z"/>
<path style="fill:#f68484; stroke:none;" d="M128 451L129 452L128 451z"/>
<path style="fill:#f79090; stroke:none;" d="M133 456L134 457L133 456z"/>
<path style="fill:#f57777; stroke:none;" d="M387 457L388 458L387 457z"/>
<path style="fill:#f35858; stroke:none;" d="M205.667 458.333L206.333 458.667L205.667 458.333z"/>
<path style="fill:#f68383; stroke:none;" d="M316 458L317 459L316 458z"/>
<path style="fill:#f57777; stroke:none;" d="M318 459L319 460L318 459z"/>
<path style="fill:#f56f6f; stroke:none;" d="M314 460L315 461L314 460z"/>
<path style="fill:#f68282; stroke:none;" d="M383 460L384 461L383 460z"/>
<path style="fill:#f78989; stroke:none;" d="M209 463L210 464L209 463z"/>
<path style="fill:#f78888; stroke:none;" d="M378 463L379 464L378 463z"/>
<path style="fill:#f9afaf; stroke:none;" d="M186.667 466.333L187.333 466.667L186.667 466.333z"/>
<path style="fill:#f57373; stroke:none;" d="M310 466L311 467L310 466z"/>
<path style="fill:#f89e9e; stroke:none;" d="M182.667 467.333L183.333 467.667L182.667 467.333z"/>
<path style="fill:#f56e6e; stroke:none;" d="M338.667 467.333L339.333 467.667L338.667 467.333z"/>
<path style="fill:#fab5b5; stroke:none;" d="M367.667 467.333L368.333 467.667L367.667 467.333z"/>
<path style="fill:#f57474; stroke:none;" d="M158.667 468.333L159.333 468.667L158.667 468.333z"/>
<path style="fill:#f8a1a1; stroke:none;" d="M177 468L177 469L180 469L177 468z"/>
<path style="fill:#f9a5a5; stroke:none;" d="M342.667 468.333L343.333 468.667L342.667 468.333z"/>
<path style="fill:#f24c4c; stroke:none;" d="M360 468L360 469L363 469L360 468z"/>
<path style="fill:#fbcccc; stroke:none;" d="M164 469L164 470L172 470L164 469M350 469L350 470L356 470L350 469z"/>
<path style="fill:#f89595; stroke:none;" d="M307 470L308 471L307 470z"/>
<path style="fill:#f57575; stroke:none;" d="M306 471L307 472L306 471z"/>
<path style="fill:#f68080; stroke:none;" d="M216 472L217 473L216 472z"/>
<path style="fill:#f78888; stroke:none;" d="M222 478L223 479L222 478z"/>
<path style="fill:#f56e6e; stroke:none;" d="M298 479L299 480L298 479z"/>
<path style="fill:#f78888; stroke:none;" d="M293 483L294 484L293 483z"/>
<path style="fill:#f79090; stroke:none;" d="M233 486L234 487L233 486z"/>
<path style="fill:#f78888; stroke:none;" d="M239 489L240 490L239 489z"/>
<path style="fill:#f24545; stroke:none;" d="M244.667 491.333L245.333 491.667L244.667 491.333z"/>
<path style="fill:#f57878; stroke:none;" d="M247.667 492.333L248.333 492.667L247.667 492.333z"/>
<path style="fill:#f9afaf; stroke:none;" d="M273.667 492.333L274.333 492.667L273.667 492.333z"/>
<path style="fill:#f67a7a; stroke:none;" d="M252 493L252 494L255 494L252 493z"/>
<path style="fill:#f57474; stroke:none;" d="M265 493L265 494L270 494L265 493z"/>
</svg>
